<?xml version="1.0" encoding="UTF-8" standalone="no"?>
<!-- Created with Inkscape (http://www.inkscape.org/) -->

<svg
   xmlns:dc="http://purl.org/dc/elements/1.1/"
   xmlns:cc="http://creativecommons.org/ns#"
   xmlns:rdf="http://www.w3.org/1999/02/22-rdf-syntax-ns#"
   xmlns:svg="http://www.w3.org/2000/svg"
   xmlns="http://www.w3.org/2000/svg"
   xmlns:sodipodi="http://sodipodi.sourceforge.net/DTD/sodipodi-0.dtd"
   xmlns:inkscape="http://www.inkscape.org/namespaces/inkscape"
   width="6.3012586in"
   height="5.1886721in"
   viewBox="0 0 567.11327 466.98049"
   id="svg2"
   version="1.1"
   inkscape:version="0.91 r13725"
   sodipodi:docname="buy.svg">
  <defs
     id="defs4">
    <filter
       style="color-interpolation-filters:sRGB"
       inkscape:label="Blur"
       id="filter5149">
      <feGaussianBlur
         stdDeviation="2 2"
         result="blur"
         id="feGaussianBlur5151" />
    </filter>
  </defs>
  <sodipodi:namedview
     id="base"
     pagecolor="#ffffff"
     bordercolor="#666666"
     borderopacity="1.0"
     inkscape:pageopacity="0.0"
     inkscape:pageshadow="2"
     inkscape:zoom="0.5"
     inkscape:cx="245.7663"
     inkscape:cy="241.16109"
     inkscape:document-units="px"
     inkscape:current-layer="layer1"
     showgrid="false"
     fit-margin-top="0"
     fit-margin-left="0"
     fit-margin-right="0"
     fit-margin-bottom="0"
     inkscape:window-width="1366"
     inkscape:window-height="745"
     inkscape:window-x="-8"
     inkscape:window-y="-8"
     inkscape:window-maximized="1"
     units="ft" />
  <metadata
     id="metadata7">
    <rdf:RDF>
      <cc:Work
         rdf:about="">
        <dc:format>image/svg+xml</dc:format>
        <dc:type
           rdf:resource="http://purl.org/dc/dcmitype/StillImage" />
        <dc:title></dc:title>
      </cc:Work>
    </rdf:RDF>
  </metadata>
  <g
     inkscape:label="Layer 1"
     inkscape:groupmode="layer"
     id="layer1"
     transform="translate(-1665.3992,-384.16823)">
    <path
       style="opacity:1;fill:#000000;fill-opacity:1;fill-rule:nonzero;stroke:none;stroke-width:0.31;stroke-linecap:round;stroke-linejoin:round;stroke-miterlimit:4;stroke-dasharray:none;stroke-dashoffset:0;stroke-opacity:1"
       d="m 44.8125,-273.64844 -95.589844,78.71289 c -2.557821,-2.07713 -5.415768,-3.77921 -8.503906,-4.98242 -26.247,-9.62911 -55.12932,-4.62731 -82.29492,-6.75781 -8.1849,0.69981 -9.68693,10.72452 -10.08203,17.25781 -0.62872,26.16897 -0.94207,52.34931 -1.19336,78.53125 l -85.89258,70.728517 74.87695,61.65625 c -0.21097,36.861902 -0.11708,73.727529 -0.13281,110.589843 12.7333,6.94998 28.30393,5.32609 41.76953,2.1582 8.7597,-5.72518 5.69408,-17.54834 6.35938,-26.30859 -0.012,-5.47152 -0.0839,-10.947272 0.19336,-16.414062 13.4165,12.628092 24.061102,28.601332 39.691402,38.648442 8.0142,2.51508 14.481469,-6.61934 13.230469,-13.94141 0.189397,-3.62708 0.308121,-7.38055 0.404297,-11.14063 L 44.8125,193.33203 130.07227,123.12695 c 0.37827,0.66034 0.75062,1.32427 1.13281,1.98243 3.8319,5.27827 12.77531,6.53106 16.53711,0.45898 7.65779,-8.96782 11.12812,-20.39312 16.60547,-30.666016 l 4.11914,-3.390625 c 6.08586,10.268971 9.18908,23.571601 20.12304,29.750001 9.0072,2.34832 15.09373,-7.00181 17.67383,-14.2793 12.09786,-26.552692 25.20983,-52.602227 38.70508,-78.466795 l 83.40039,-68.673828 -112.1875,-92.378907 c 0.20871,-0.32398 0.41665,-0.64837 0.63672,-0.96875 10.936,-21.08827 26.03621,-40.17695 34.28711,-62.57422 0.8257,-5.15917 -2.16453,-11.48046 -8.07813,-11.36133 -13.6493,0.82229 -27.51005,0.0659 -41.25195,0.3711 -10.1577,11.23557 -16.85828,24.96951 -25.20898,37.48633 -7.8243,-11.51898 -14.13131,-24.51253 -23.72461,-34.59961 -8.66993,-3.30347 -17.822,-2.97927 -26.9668,-2.71485 l -81.0625,-66.75 z M -101.5,-159.11914 c 1.763645,0.38406 4.913781,-0.14572 6.521484,0.58008 l -1.708984,1.40625 c -2.82323,0.4592 -6.54942,0.40808 -4.8125,-1.98633 z"
       transform="translate(1904.1433,657.81667)"
       id="rect5251"
       inkscape:connector-curvature="0" />
    <path
       style="fill:#ffffff"
       d="m 1906.1433,789.05894 c -8.6792,-0.86053 -23.1279,-7.52856 -33.9431,-15.66465 -8.8768,-6.67789 -16.861,-18.05306 -21.8835,-31.17762 -3.3939,-8.86852 -3.445,-9.23375 -3.4998,-25 -0.064,-18.35555 1.0152,-23.66769 7.6165,-37.5 3.3724,-7.06658 5.5881,-10.01774 13.1388,-17.5 15.667,-15.52498 28.1931,-20.81414 49.5711,-20.93142 10.6773,-0.0586 13.5207,0.28 19.5,2.322 16.1221,5.50587 27.8717,13.22442 36.9177,24.25182 6.3243,7.70972 12.553,19.40196 13.7748,25.8576 2.8407,15.00983 3.1246,34.42071 0.6288,43 -3.709,12.74999 -7.2081,19.2452 -14.6017,27.10471 -10.7477,11.42478 -24.1066,19.97803 -36.7196,23.51022 -5.2841,1.47977 -22.922,2.47868 -30.5,1.72734 z m 24.4266,-44.82041 c 2.1597,-1.05455 6.4769,-4.41588 9.5939,-7.46961 4.6923,-4.59701 5.8955,-6.4985 6.9937,-11.05225 2.3388,-9.69761 1.8216,-16.67362 -1.7499,-23.60402 -3.6876,-7.15558 -11.3984,-14.52456 -16.9125,-16.16272 -13.8493,-4.11448 -24.6828,-1.86316 -32.8017,6.81659 -6.9096,7.38692 -8.5019,11.63884 -8.5281,22.77208 -0.019,8.11216 0.2959,9.86415 2.4278,13.5 3.322,5.66557 8.9402,10.9643 15.5502,14.666 5.0716,2.8402 6.1231,3.0556 13.5,2.76569 5.3129,-0.2088 9.3189,-0.95842 11.9266,-2.23176 z m -180.1766,41.48751 -2.25,-0.94492 0,-73.03223 c 0,-40.91554 0.3838,-73.03222 0.8726,-73.03222 1.2221,0 7.1684,6.74792 17.2298,19.55232 8.4462,10.74886 10.9201,13.69407 19.8557,23.63861 9.4813,10.55176 9.8657,9.96257 10.5765,-16.21232 0.4053,-14.92299 0.944,-21.66687 1.7737,-22.20371 0.6555,-0.42406 8.6127,-0.65939 17.6828,-0.52296 l 16.4911,0.24806 0.6406,3 c 0.3523,1.65 0.6938,31.82649 0.7589,67.05887 0.1332,72.12902 0.3256,70.12486 -6.2513,65.10838 -1.978,-1.5087 -12.24,-11.97106 -22.8045,-23.24969 -21.7135,-23.18148 -22.858,-23.86969 -23.977,-14.41756 -0.3581,3.025 -0.6956,13.8824 -0.75,24.12756 -0.085,16.01086 -0.3307,18.82034 -1.749,20 -1.9834,1.64965 -24.5829,2.35886 -28.0999,0.88181 z m 287.3748,-14.25937 c -5.9046,-10.87365 -22.5172,-45.00842 -27.1322,-55.75 -2.0085,-4.675 -4.9313,-10.75 -6.4949,-13.5 -1.5637,-2.75 -3.7334,-7.2663 -4.8215,-10.03622 -1.0882,-2.76992 -5.8619,-13.0794 -10.6083,-22.90996 -8.4302,-17.46054 -10.9508,-24.39236 -9.8823,-27.17695 0.4233,-1.10314 4.353,-1.37687 19.7664,-1.37687 17.0549,0 19.4169,0.19859 20.8141,1.75 0.8668,0.9625 3.9027,6.7 6.7464,12.75 12.7461,27.11762 14.7409,30.5 17.9875,30.5 2.8363,0 5.0712,-3.51878 14.4551,-22.7596 4.7587,-9.75722 9.2056,-18.8654 9.8819,-20.2404 0.6764,-1.375 2.238,-2.6452 3.4702,-2.82267 1.9293,-0.27787 2.7211,0.7633 5.7036,7.5 1.9049,4.30247 4.1644,9.13193 5.0213,10.73214 0.8569,1.60021 3.8344,7.31023 6.6167,12.68893 2.7823,5.3787 5.9168,10.55595 6.9655,11.505 1.8156,1.64314 2.0287,1.61085 4.4629,-0.67595 1.406,-1.32081 6.7696,-10.75819 11.9193,-20.97195 7.1916,-14.26371 9.97,-18.84702 11.9803,-19.76298 1.6978,-0.77354 8.5735,-1.19252 19.5702,-1.19252 l 16.953,0 0,2.39617 c 0,3.06367 -6.2652,16.14482 -24.4762,51.10383 -15.2106,29.1991 -26.5238,52.10984 -26.5238,53.714 0,0.51554 -2.7357,6.30329 -6.0794,12.86167 -8.4426,16.55964 -8.5372,16.53325 -19.9815,-5.57567 -7.7288,-14.93113 -10.2456,-18.5 -13.0463,-18.5 -1.7587,0 -11.8928,15.37994 -11.8928,18.04897 0,1.41793 -9.2077,18.91378 -12.2103,23.20103 -1.0592,1.5125 -2.5467,2.75 -3.3054,2.75 -0.7588,0 -3.3955,-3.7125 -5.8595,-8.25 z M 1761.06,599.6334 l -2.2379,-2.2379 0.6173,-66.36293 c 0.4764,-51.21873 0.9124,-66.96632 1.9106,-69.00707 l 1.2933,-2.64415 26,0.20919 c 30.3582,0.24425 41.4309,1.32713 50.8563,4.97359 9.4076,3.6396 13.8265,7.64618 16.4902,14.95176 3.9354,10.7932 2.6052,18.0879 -4.8524,26.61013 -2.7468,3.13887 -4.9941,6.29471 -4.9941,7.01298 0,0.71828 2.0498,2.08877 4.555,3.04554 5.4105,2.06626 15.8398,11.40316 18.3755,16.4506 5.2971,10.54466 5.0303,32.41889 -0.5027,41.20803 -5.2265,8.30214 -8.8407,11.95393 -16.371,16.54103 -10.4177,6.34601 -21.2174,6.17802 -48.5568,8.3543 -19.6063,1.5607 -35.4402,1.37653 -38.6727,2.42821 -1.1239,0.36566 -2.4533,-0.0761 -3.9106,-1.53331 z m 65.3837,-39.23839 c 5.8881,-3.46109 8.2723,-7.8119 7.2543,-13.23819 -1.5004,-7.99823 -13.0556,-13.82647 -27.5547,-13.89814 l -8.5,-0.042 -0.8968,12.7802 c -0.6555,9.34185 -0.5811,13.47279 0.2762,15.35455 l 1.173,2.57436 11.7238,-0.35456 c 10.7247,-0.32434 12.1329,-0.59501 16.5242,-3.17622 z m -8.8597,-64.97218 c -0.9795,-2.55252 -8.3856,-4.86174 -14.4817,-4.51538 -6.0939,0.34624 -8.8606,-0.11042 -8.5241,9.49118 0.1219,3.4786 -0.2891,5.29691 1.5536,6.30659 1.9003,1.90024 2.8571,2.11173 6.8471,1.5134 10.9273,3.04182 18.654,-5.69985 14.6051,-12.79579 z m 102.5009,103.34561 c -7.16,-2.17264 -15.6562,-9.88099 -20.3828,-18.49272 -6.0134,-10.95613 -6.5588,-16.69017 -6.5588,-68.95436 0,-25.49508 0.27,-47.70455 0.5999,-49.35439 l 0.6,-2.9997 17.15,-0.48925 c 9.4326,-0.26909 17.5741,-0.10394 18.0924,0.367 0.5532,0.50271 1.1222,20.85495 1.378,49.29187 l 0.4358,48.43563 3.3759,3.27207 c 5.4509,5.28328 12.1645,4.0636 17.5572,-3.18971 3.0358,-4.08323 3.7257,-15.56619 3.1802,-52.93821 -0.285,-19.525 -0.1349,-37.525 0.3334,-40 l 0.8516,-4.5 17.4728,-0.26079 c 9.61,-0.14343 18.0996,0.14789 18.8658,0.64737 0.7661,0.49949 1.7894,3.09185 2.2739,5.76079 1.5752,8.67646 2.1896,64.17756 0.9316,84.15896 -1.1597,18.42126 -1.2295,18.79969 -4.7878,25.9694 -4.5437,9.15542 -13.8295,18.25964 -20.9842,20.57392 -9.5346,3.0841 -43.1797,4.88847 -50.3849,2.70212 z m 139.7269,-1.15559 c -0.3527,-1.3179 -0.6473,-13.32661 -0.6548,-26.68602 -0.016,-28.20203 1.4043,-23.31909 -14.3132,-49.21016 -16.9248,-27.87978 -32.6616,-57.40306 -32.6881,-61.32506 -0.012,-1.71737 1.1747,-1.80588 20.1049,-1.5 18.7663,0.30323 20.2144,0.45938 21.5631,2.32506 l 27.027,41.8033 26.1138,-41.5533 2.553,-2.75 18.8129,0 18.8129,0 0,2.48239 c 0,1.36531 -1.7183,5.30281 -3.8183,8.75 -2.1001,3.44718 -5.1235,8.74261 -6.7187,11.76761 -1.5951,3.025 -4.5238,7.975 -6.5082,11 -3.8365,5.84839 -16.8492,28.82594 -21.5202,38 -2.5873,5.08155 -2.8563,6.7173 -3.535,21.5 -0.404,8.8 -0.7717,21.65149 -0.8171,28.55887 -0.055,8.36021 -0.5004,13.12408 -1.3325,14.24952 -1.4774,1.99825 -9.1614,3.29762 -29.8451,4.34573 l -12.5952,0.63824 z"
       id="path5280"
       inkscape:connector-curvature="0"
       sodipodi:nodetypes="ssscsssssssssscssssscssscscssssscsccsssssssscccssscssscscssccscscssssssscssccsccsssssccsssscscscsccsscsscccsssccscscsssccsccsssscsscsccccccsccsssssscc" />
  </g>
  <g
     inkscape:groupmode="layer"
     id="layer2"
     inkscape:label="Layer 2"
     transform="translate(-850.29862,-272.66488)" />
</svg>
