<?xml version="1.0" encoding="UTF-8"?> <svg xmlns="http://www.w3.org/2000/svg" xmlns:xlink="http://www.w3.org/1999/xlink" width="742" height="654" viewBox="0 0 742 654"><defs><clipPath id="clip-path"><rect id="Rectángulo_159" data-name="Rectángulo 159" width="742" height="654" transform="translate(970 139)" fill="#fff" stroke="#707070" stroke-width="1"></rect></clipPath><clipPath id="clip-path-2"><rect id="Rectángulo_151" data-name="Rectángulo 151" width="837" height="632" transform="translate(875 161)" fill="#fff" stroke="#707070" stroke-width="1"></rect></clipPath></defs><g id="ilust-central-avisos" transform="translate(-970 -139)"><g id="Enmascarar_grupo_15" data-name="Enmascarar grupo 15" clip-path="url(#clip-path)"><g id="Grupo_172" data-name="Grupo 172"><g id="Grupo_126" data-name="Grupo 126" transform="translate(0 -55)"><path id="Trazado_659" data-name="Trazado 659" d="M337.278-3756.028c-17.328,24.638-30.7,58.157-21.42,89.1,9.249,30.844,38.828,49.863,51.754,79.161,7.306,16.559,7.5,34.767,7.778,52.542.362,23.269-4.184,47.978,11.542,67.642,9.3,11.631,23.338,18.5,37.532,23.018,28.505,9.067,58.367,13.324,83.687,30.449,41.6,28.135,92.679,37.972,142.251,34.932a322.083,322.083,0,0,0,74.147-13.622c27.978-8.54,52.845-23.655,81.015-31.751,48.822-14.033,115.58-14.226,144.15-63.623,19.236-33.256,25.9-74.36,10.936-110.595-7.115-17.229-20.7-30.388-28.43-47.3-10.687-23.369-13.569-50.016-6.429-74.841q.445-1.533.929-3.051c7.458-23.21,22.474-43.168,28.685-66.8,12.82-48.781-15.51-100.357-52.75-131.711-15.475-13.029-32.765-23.873-51.6-30.055-26.17-8.591-53.8-7.843-81.447-7.1-27.222.736-54.456,1.471-80.3-6.711-39.969-12.651-72.781-45.539-113.5-55.049-31.295-7.308-65.112.493-91.7,19.594s-45.874,48.994-54.669,81.915c-8.149,30.5-7.894,64.01-22.344,91.722-12.364,23.706-35.277,36.5-53.881,53.7A115.957,115.957,0,0,0,337.278-3756.028Z" transform="translate(656.466 4316.474)" fill="#edf7e8"></path><path id="Trazado_660" data-name="Trazado 660" d="M737.525-3527.431l-.712-1.221c20.245-11.8,43.824-12.721,66.628-13.606,9.338-.363,18.994-.736,28.164-1.872,42.905-5.312,74.532-32.939,84.6-73.9,9.184-37.374-1.076-77.365-26.778-104.368-1.3-1.368-2.635-2.756-3.925-4.1-8.931-9.288-18.166-18.895-24.747-30.2a65.123,65.123,0,0,1-8.138-23.121,75.1,75.1,0,0,1,.366-23.814c2.507-14.8,9.082-30.111,19.015-44.275,2.626-3.746,5.4-7.5,8.082-11.135,8.6-11.649,17.5-23.7,23.134-37.482,6.746-16.495,8.321-37.614,4.436-59.465-6.336-35.641-26.436-67.728-53.771-85.832-35.462-23.486-72.96-18.378-112.659-12.971-16.551,2.254-33.551,4.57-50.356,4.57-4.368,0-8.721-.156-13.051-.51a124.531,124.531,0,0,1-22.842-4.053,124.321,124.321,0,0,1-21.83-8.291,117.5,117.5,0,0,1-37.378-28.783c-29.535-34.291-69.958-53.11-108.787-53.11a111.308,111.308,0,0,0-48.7,10.933c-30.7,14.857-55.926,43.056-69.2,77.366-7.55,19.519-9.073,40.707-10.543,61.2-1.379,19.194-2.8,39.041-9.118,57.8a119.809,119.809,0,0,1-15.251,30.148,98.559,98.559,0,0,1-23.456,24.048c-23.606,16.744-39.658,32.819-50.517,50.587-15.684,25.663-19.188,56.043-9.144,79.286,7.189,16.638,21.149,27.272,34.649,37.555,7.013,5.343,14.265,10.867,20.415,17.136,6.92,7.056,11.7,14.352,14.621,22.308,2.417,6.587,3.573,14.217,3.535,23.328-.045,10.617-2.008,21.486-3.906,32-3.222,17.841-6.554,36.291-.562,53.953,3.917,11.547,13.765,19.937,29.269,24.935,10.886,3.511,24.22,5.33,40.763,5.565,4.892.069,9.9.028,14.753-.013,19.108-.159,38.868-.326,57.033,6.183l-.478,1.332c-17.927-6.424-37.558-6.26-56.544-6.1-4.855.042-9.877.084-14.784.013-16.686-.236-30.156-2.079-41.179-5.632-15.953-5.144-26.1-13.834-30.174-25.828-6.108-18.009-2.744-36.64.51-54.659,1.888-10.453,3.84-21.262,3.884-31.753.038-8.94-1.09-16.41-3.448-22.835-6.354-17.318-20.057-27.756-34.565-38.806-13.645-10.4-27.754-21.141-35.091-38.119a71.465,71.465,0,0,1-5.326-20.141,84.039,84.039,0,0,1,.272-20.878,103.059,103.059,0,0,1,14.29-39.566c10.962-17.937,27.138-34.143,50.906-51,16.847-11.951,30.765-31.449,38.185-53.493,6.257-18.59,7.676-38.346,9.048-57.452,1.479-20.594,3.009-41.89,10.636-61.606,13.4-34.64,38.878-63.118,69.9-78.128a111.64,111.64,0,0,1,42.6-10.984,126.356,126.356,0,0,1,42.965,5.218c27.7,8.185,53.84,25.336,73.613,48.293,20.022,23.246,49.579,38.059,81.094,40.639,20.837,1.7,42.323-1.221,63.1-4.052,19.116-2.6,38.88-5.295,57.91-4.313a119.623,119.623,0,0,1,28.27,4.66A101.335,101.335,0,0,1,854.659-4043c13.691,9.068,25.95,21.966,35.455,37.3a141.951,141.951,0,0,1,18.927,49.466,130.26,130.26,0,0,1,1.91,30.5,93.131,93.131,0,0,1-6.43,29.744c-5.7,13.948-14.65,26.067-23.3,37.787-2.679,3.625-5.447,7.375-8.063,11.106-21.692,30.93-25.868,64.458-11.178,89.686,6.5,11.155,15.67,20.7,24.544,29.93,1.291,1.342,2.627,2.731,3.931,4.1A110.843,110.843,0,0,1,917.341-3674a117.025,117.025,0,0,1,.236,56.3,102.746,102.746,0,0,1-11.763,28.709,94.329,94.329,0,0,1-19.015,22.569c-14.9,12.886-33.923,21.077-55.02,23.69-9.231,1.142-18.917,1.517-28.284,1.881C780.865-3539.966,757.465-3539.056,737.525-3527.431Z" transform="translate(714.338 4419.22)" fill="#ecf6e8"></path><path id="Trazado_661" data-name="Trazado 661" d="M2998.334-4581.327c.46-2.792-3.235-8.424-7.266-8.333-1.6.036-3.173.451-4.774.374-4.266-.208-6.478-3.531-8.122-6.281s-4.919-5.887-9.077-5.189c-5.987,1-9,8.9-15.812,2.974-4.454-3.883-4.786-9.311-9.831-13.076-3.463-2.584-9.093-4.116-13.734-2.688-6.058,1.865-8.31,7.871-14.761,8.916-7.144,1.158-12.281-4.278-14.562-8.2-2.768-4.755-3.795-9.9-6.166-14.739-2.194-4.481-6.607-10.483-14.513-10.353-6.685.11-9.631,4.342-12.913,7.7-4.266,4.37-13.136,20.058-23.082,18.167-3.878-.738-5.814-3.818-9.314-5.2-5.625-2.218-12.8.831-16.186,4.664s-4.733,8.463-8.563,12.089a8.865,8.865,0,0,1-3.75,2.25c-5.351,1.465-10.331-3.039-16.059-3.375a13.343,13.343,0,0,0-9.893,3.893c-2.272,2.265-3.511,4.942-5.251,7.426a5.523,5.523,0,0,1-1.909,1.86c-2.512,1.348-6.048.212-9.126-.317-7.606-1.31-16.245,2.181-18.391,7.431Z" transform="translate(-1385.839 4831.842)" fill="#ecf6e8"></path><path id="Trazado_662" data-name="Trazado 662" d="M130.088-3699.394c.237-1.436-1.662-4.331-3.735-4.284-.824.019-1.631.233-2.454.192-2.193-.107-3.33-1.814-4.176-3.229s-2.529-3.026-4.666-2.667c-3.078.517-4.629,4.578-8.127,1.529-2.29-2-2.462-4.786-5.055-6.722a8.463,8.463,0,0,0-7.06-1.381c-3.114.958-4.273,4.045-7.588,4.583-3.673.595-6.314-2.2-7.486-4.214-1.423-2.446-1.951-5.089-3.17-7.577-1.128-2.3-3.4-5.389-7.461-5.322-3.437.056-4.951,2.231-6.638,3.958-2.194,2.246-6.753,10.312-11.866,9.34-1.994-.38-2.989-1.963-4.788-2.672-2.892-1.14-6.579.427-8.321,2.4s-2.433,4.35-4.4,6.214a4.557,4.557,0,0,1-1.928,1.158c-2.75.752-5.311-1.564-8.255-1.736a6.857,6.857,0,0,0-5.086,2,25.292,25.292,0,0,0-2.7,3.817,2.846,2.846,0,0,1-.981.956c-1.292.693-3.109.109-4.692-.164-3.91-.672-8.352,1.123-9.454,3.82Z" transform="translate(919.113 4068.275)" fill="#ecf6e8"></path></g><g id="Grupo_128" data-name="Grupo 128" transform="translate(-76 -6)"><path id="Trazado_186" data-name="Trazado 186" d="M3196.155-3710.669H3389.2a20.064,20.064,0,0,0,20-20.006v-101.51a20.064,20.064,0,0,0-20-20h-193.05a20.064,20.064,0,0,0-20,20v101.51A20.065,20.065,0,0,0,3196.155-3710.669Z" transform="translate(-1698.15 4105.137)" fill="#6bb549"></path><path id="Trazado_187" data-name="Trazado 187" d="M3367.4-3078.037v-65.033l50.935,27.782Z" transform="translate(-1858.725 3509.756)" fill="#6bb549"></path><path id="Trazado_188" data-name="Trazado 188" d="M3506.67-3435.923H3403.645a6.193,6.193,0,0,1-6.175-6.173,6.193,6.193,0,0,1,6.175-6.174H3506.67a6.192,6.192,0,0,1,6.174,6.174A6.192,6.192,0,0,1,3506.67-3435.923Z" transform="translate(-1883.972 3766.004)" fill="#fff"></path><path id="Trazado_189" data-name="Trazado 189" d="M4203.751-3435.923h-25.467a6.192,6.192,0,0,1-6.174-6.173,6.192,6.192,0,0,1,6.174-6.174h25.467a6.192,6.192,0,0,1,6.173,6.174A6.191,6.191,0,0,1,4203.751-3435.923Z" transform="translate(-2534.363 3766.004)" fill="#fff"></path><path id="Trazado_190" data-name="Trazado 190" d="M3694.735-3623.09H3797.76a6.192,6.192,0,0,1,6.174,6.174,6.192,6.192,0,0,1-6.174,6.174H3694.735a6.193,6.193,0,0,1-6.175-6.174A6.193,6.193,0,0,1,3694.735-3623.09Z" transform="translate(-2128.372 3912.783)" fill="#fff"></path><path id="Trazado_191" data-name="Trazado 191" d="M3403.645-3623.09h25.466a6.192,6.192,0,0,1,6.174,6.174,6.192,6.192,0,0,1-6.174,6.174h-25.466a6.193,6.193,0,0,1-6.175-6.174A6.193,6.193,0,0,1,3403.645-3623.09Z" transform="translate(-1883.972 3912.783)" fill="#fff"></path><path id="Trazado_192" data-name="Trazado 192" d="M3472.328-3276.111h-68.683a6.194,6.194,0,0,1-6.175-6.176,6.193,6.193,0,0,1,6.175-6.173h68.683a6.191,6.191,0,0,1,6.173,6.173A6.193,6.193,0,0,1,3472.328-3276.111Z" transform="translate(-1883.972 3631.826)" fill="#fff"></path></g></g><g id="Grupo_141" data-name="Grupo 141" transform="translate(-1995.168 -5145.537)"><path id="Trazado_745" data-name="Trazado 745" d="M350.013-97.861l-.011.192a14.341,14.341,0,0,0-2.265-.192,15.086,15.086,0,0,0-15.013,13.65L307.17,184.379a10.635,10.635,0,0,1-10.636,9.69H134.9a15.081,15.081,0,0,0,0,30.162H296.534a40.747,40.747,0,0,0,31-14.309c8.89.659,43.333,3.605,43.333,3.605L406.151,202.3l32.066-300.16Z" transform="translate(3253.874 5917.166)" fill="#b9b9b5"></path><path id="Trazado_746" data-name="Trazado 746" d="M312.591,194.069a10.648,10.648,0,0,0,10.642-9.69l25.554-268.59a15.076,15.076,0,0,1,15.008-13.65A15.08,15.08,0,0,1,378.8-81.355L353.259,187.19a40.851,40.851,0,0,1-40.668,37.04H150.959a15.081,15.081,0,0,1,0-30.162Z" transform="translate(3328.298 5917.166)" fill="#b9b9b5"></path><path id="Trazado_750" data-name="Trazado 750" d="M119.186-5.6c11.847-5.588,79.8-15.081,91.81-20.314,16.551-7.217,29.092-26.658,37.221-42.775a296.228,296.228,0,0,0,11.656-27.559L310.648-69.42a300.094,300.094,0,0,1-22.94,33.829C274.8-19.13,259.844-3.784,241.389,6.074,222.15,16.35,142.554,17.6,121.012,14.2,103.655,10.6,107.328-.021,119.186-5.6Z" transform="translate(3204.371 5924.617)" fill="#f79c82"></path><path id="Trazado_751" data-name="Trazado 751" d="M175.979-102.746C189.386-110,216.9-108.464,218.23-89.153c.783,11.368-5.752,23.785-10.067,34a302.157,302.157,0,0,1-16.557,33.227l-.687,1.138L134.972-44.124C147.259-59.61,158.779-93.434,175.979-102.746Z" transform="translate(3324.1 5875.986)" fill="#ffc73c" fill-rule="evenodd"></path><path id="Trazado_752" data-name="Trazado 752" d="M108.768-72.275c-4.439,4.225-7.791,9.932-7.921,16.056s4.856,18.393,9.414,14.3c3.758-3.391,4.7-9.059,9.752-8.9s9.594,2.946,14.292,4.811c13.881,5.515,55.924-1.96,38.038-23.948C158.636-86.793,123.719-86.517,108.768-72.275Z" transform="translate(3165.969 5987.029)" fill="#f79c82"></path><path id="Trazado_756" data-name="Trazado 756" d="M259.174-32.049c-3.386,25.295-13.1,49.817-12.692,75.337a96.984,96.984,0,0,0,30.173,68.256c11.475,10.783,27.232,23.03,23.12,38.235-3.7,13.678-20.793,17.729-34.871,19.329-30.7,3.487-65.721,5.645-88.3-15.441-13.83-12.912-19.813-32-24.213-50.4A509.993,509.993,0,0,1,138.769,3.82C137.7-24.7,139.608-55.1,156-78.469c16.332-23.272,34.663-38.708,61.394-30.506C247.789-79.156,262.537-57.135,259.174-32.049Z" transform="translate(3340.567 5855.359)" fill="#ffc73c" fill-rule="evenodd"></path><path id="Trazado_761" data-name="Trazado 761" d="M124.925-8.618c11.853-5.588,79.8-12.067,91.81-17.3,16.551-7.217,29.092-26.658,37.221-42.775a296.29,296.29,0,0,0,11.656-27.559L316.386-69.42a299.362,299.362,0,0,1-22.94,33.829C280.54-19.13,265.583-3.784,247.127,6.074c-19.238,10.276-98.829,8.507-120.377,5.1C109.393,7.584,113.072-3.035,124.925-8.618Z" transform="translate(3230.969 5924.617)" fill="#f9b08b"></path><path id="Trazado_762" data-name="Trazado 762" d="M155.054-70.044c5.988-13.008,14.084-25.88,26.669-32.7,13.408-7.256,40.922-5.718,42.251,13.594.783,11.368-5.74,23.785-10.073,34a301.115,301.115,0,0,1-16.546,33.227l-.693,1.138L140.711-44.124C143.607-51.667,151.674-62.714,155.054-70.044Z" transform="translate(3350.692 5875.986)" fill="#ffc73c" fill-rule="evenodd"></path><path id="Trazado_763" data-name="Trazado 763" d="M119.629-82.634c-5.605,2.473-10.692,6.7-12.9,12.416s-1.668,18.951,4.005,16.636c4.687-1.91,7.493-6.918,12.2-5.059s8.028,6.022,11.819,9.374c11.183,9.892,53.271,17.115,43.9-9.628C171.469-79.383,138.53-90.965,119.629-82.634Z" transform="translate(3187.67 5975.096)" fill="#f9b08b"></path><path id="Trazado_764" data-name="Trazado 764" d="M183.344-120.4c-2.366-4.456-28.3,8.912-29.841,12.123s-3.183,39.44-8.726,62.059c-1.194,4.89,47.192-10.067,43.756-15.977C182.961-71.773,177.265-108.324,183.344-120.4Z" transform="translate(3369.43 5808.575)" fill="#f79c82"></path><path id="Trazado_765" data-name="Trazado 765" d="M140.017-103.118c8.963-37.181,59.811-29.339,71.889-25.633s12.388,20.793,13.549,33.373c.721,7.757-2.09,15.487-6.71,21.644-4.445,5.927-23.785,14.85-24.878,15.087C186.691-46.276,175.024-32.13,163.154-32.3c-5.346-.079-10.191-3.51-13.334-7.836s-4.856-9.493-6.529-14.574C138.09-70.466,136.124-86.99,140.017-103.118Z" transform="translate(3337.984 5758.64)" fill="#f9b08b"></path><path id="Trazado_766" data-name="Trazado 766" d="M163.595-121.461a6.367,6.367,0,0,1,1.656,3.262,14.808,14.808,0,0,1-1.9,11.194,14.777,14.777,0,0,1-9.34,6.445,6.2,6.2,0,0,1-4.484-.439c-4.529-2.76-2.236-12.366-.056-16.089C151.725-120.96,159.736-125.039,163.595-121.461Z" transform="translate(3379.423 5801.427)" fill="#f9b08b"></path><path id="Trazado_771" data-name="Trazado 771" d="M101.805-79.528l99.01,7.921a7,7,0,0,1,6.439,6.974,7,7,0,0,1-7,7h-99.01a6.994,6.994,0,0,1-7-7v-7.915A7,7,0,0,1,101.805-79.528Z" transform="translate(3135.417 6002.007)" fill="#005d74"></path><g id="Grupo_162" data-name="Grupo 162" transform="translate(3476.278 5608.927)"><path id="Trazado_876" data-name="Trazado 876" d="M99.314,34.711c4.343-5.243,7.732-11.469,8.582-18.218,1.01-7.986-1.645-16.143-6.137-22.827C93.734-18.255,73.01-33.648,56.27-33.99,38.383-34.354,7.664-16.544,10.578,5.592c.872,6.617,4.509,6.667,10.845,8.781,8.345,2.787,19.543,4.713,26.469,10.144,8.279,6.5,4.6,22.17,21.541,27.253,5.48,1.65,11.1,11.32,14.747,18.842C88.5,65.7,95.125,39.777,99.314,34.711Z" transform="translate(-10.385 33.996)" fill="#212a53" fill-rule="evenodd"></path><path id="Trazado_877" data-name="Trazado 877" d="M23.56-29.058c9.129-2.406,19.388-2.114,27.375,2.925,5.017,3.162,8.8,7.958,11.877,13.019A76.188,76.188,0,0,1,73.574,32.424c-2.406,29.1-21.48,55.787-19.366,84.905a29.126,29.126,0,0,0,3.179,12.225c2.081,3.7,5.613,6.755,9.8,7.445a42.624,42.624,0,0,1-39.8-12.6C20.773,117.18,16.9,107.858,14.255,98.437A127.805,127.805,0,0,1,14.8,27.827c1.6-5.348,3.56-10.685,3.736-16.265.171-5.508-1.75-11.491-6.551-14.609C8.173-5.525,1.147-4.94.148-10.415-1.817-21.2,16.3-27.149,23.56-29.058Z" transform="translate(81.214 49.699)" fill="#212a53" fill-rule="evenodd"></path></g><path id="Trazado_768" data-name="Trazado 768" d="M166.177-125.964c17.295,3.577,13.594,46.386-7.617,42.1C132.291-89.171,152.031-128.887,166.177-125.964Z" transform="translate(3373.669 5786.239)" fill="#53869c"></path><path id="Trazado_769" data-name="Trazado 769" d="M176.838-119.959c-.484,3.1-23.126,20.253-37.519,16.129.6,3.8.856,5.408.856,5.408s14.6,4.738,43.035-15.537C187.581-117.08,176.838-119.959,176.838-119.959Z" transform="translate(3344.242 5814.774)" fill="#53869c"></path><path id="Trazado_770" data-name="Trazado 770" d="M135.745-110.24c-.344,2.862,2.1,5.532,5.431,5.932L151.2-103.1c3.329.4,6.338-1.606,6.676-4.467l.428-3.515c.344-2.862-2.1-5.521-5.431-5.926l-10.028-1.211c-3.329-.4-6.338,1.617-6.681,4.467Z" transform="translate(3327.535 5822.587)" fill="#53869c"></path><g id="Grupo_163" data-name="Grupo 163" transform="translate(-92 -102)"><rect id="Rectángulo_156" data-name="Rectángulo 156" width="25" height="302" rx="9" transform="translate(3171.969 5682.308) rotate(-9)" fill="#005d74"></rect><rect id="Rectángulo_157" data-name="Rectángulo 157" width="18" height="166" rx="9" transform="translate(3203.69 5868.987) rotate(17)" fill="#005d74"></rect><rect id="Rectángulo_158" data-name="Rectángulo 158" width="134" height="24" rx="9" transform="translate(3134.168 6022.537)" fill="#005d74"></rect></g></g></g><g id="Grupo_142" data-name="Grupo 142" transform="translate(-653 -5283)"><path id="Trazado_694" data-name="Trazado 694" d="M212-821.171a6.534,6.534,0,0,0,6.532-6.535v-32.658A6.534,6.534,0,0,0,212-866.9a6.534,6.534,0,0,0-6.532,6.535v32.658A6.534,6.534,0,0,0,212-821.171Z" transform="translate(1470.83 6482.458)" fill="#ffc73c"></path><path id="Trazado_695" data-name="Trazado 695" d="M185.708-827.546H218.37a6.534,6.534,0,0,0,6.532-6.535,6.533,6.533,0,0,0-6.532-6.529H185.708a6.533,6.533,0,0,0-6.532,6.529A6.534,6.534,0,0,0,185.708-827.546Z" transform="translate(1480.788 6472.501)" fill="#ffc73c"></path></g><path id="Trazado_772" data-name="Trazado 772" d="M1315.377-843.62a11.576,11.576,0,0,1,11.561,11.561,11.577,11.577,0,0,1-11.561,11.567,11.578,11.578,0,0,1-11.567-11.567A11.577,11.577,0,0,1,1315.377-843.62Zm0,32.658a21.116,21.116,0,0,0,21.091-21.1,21.115,21.115,0,0,0-21.091-21.091,21.116,21.116,0,0,0-21.1,21.091A21.117,21.117,0,0,0,1315.377-810.962Z" transform="translate(-21.518 1088.25)" fill="#6bb549"></path><g id="Grupo_164" data-name="Grupo 164" transform="translate(-7076.603 -4709.604)"><path id="Trazado_869" data-name="Trazado 869" d="M137.951-109.148H84.12v-53.833A53.834,53.834,0,0,1,137.951-109.148Z" transform="translate(8286.062 5306.808)" fill="rgba(255,199,60,0.26)"></path><path id="Trazado_870" data-name="Trazado 870" d="M57.421-161.061A50.3,50.3,0,0,0,7.173-110.817,50.3,50.3,0,0,0,57.421-60.574a50.3,50.3,0,0,0,50.24-50.243A50.3,50.3,0,0,0,57.421-161.061Zm0,107.664A57.484,57.484,0,0,1,0-110.817a57.484,57.484,0,0,1,57.421-57.421,57.488,57.488,0,0,1,57.421,57.421A57.488,57.488,0,0,1,57.421-53.4Z" transform="translate(8312.76 5308.476)" fill="#ffc73c"></path><path id="Trazado_871" data-name="Trazado 871" d="M107.853-82.2H69.811a3.587,3.587,0,0,1-3.59-3.589,3.587,3.587,0,0,1,3.59-3.589h38.042a3.588,3.588,0,0,1,3.591,3.589A3.588,3.588,0,0,1,107.853-82.2Z" transform="translate(8291.742 5283.446)" fill="#ffc73c"></path><path id="Trazado_872" data-name="Trazado 872" d="M82.451-93.542a3.588,3.588,0,0,1-3.591-3.589v-52.756a3.587,3.587,0,0,1,3.591-3.589,3.591,3.591,0,0,1,3.59,3.589v52.756A3.592,3.592,0,0,1,82.451-93.542Z" transform="translate(8287.73 5303.791)" fill="#ffc73c"></path><path id="Trazado_873" data-name="Trazado 873" d="M82.451-20.018a3.592,3.592,0,0,1-3.591-3.588v-4.307A3.592,3.592,0,0,1,82.451-31.5a3.591,3.591,0,0,1,3.59,3.588v4.307A3.591,3.591,0,0,1,82.451-20.018Z" transform="translate(8287.73 5265.078)" fill="#ffc73c"></path><path id="Trazado_874" data-name="Trazado 874" d="M144.628-82.2h-4.307a3.591,3.591,0,0,1-3.591-3.588,3.591,3.591,0,0,1,3.591-3.589h4.307a3.591,3.591,0,0,1,3.591,3.589A3.591,3.591,0,0,1,144.628-82.2Z" transform="translate(8269.363 5283.446)" fill="#ffc73c"></path><path id="Trazado_875" data-name="Trazado 875" d="M22.571-82.2h-4.3a3.586,3.586,0,0,1-3.59-3.588,3.586,3.586,0,0,1,3.59-3.589h4.3a3.587,3.587,0,0,1,3.59,3.589A3.587,3.587,0,0,1,22.571-82.2Z" transform="translate(8308.101 5283.446)" fill="#ffc73c"></path></g></g></svg> 